<?xml version="1.0" encoding="UTF-8"?>
<svg id="Layer_1" data-name="Layer 1" xmlns="http://www.w3.org/2000/svg" viewBox="0 0 175.45 475.06">
  <defs>
    <style>
      .cls-1 {
        fill: #491914;
      }

      .cls-2 {
        fill: #083f5e;
      }

      .cls-3 {
        fill: #fbb040;
      }

      .cls-4 {
        fill: #f7941d;
        opacity: .3;
      }
    </style>
  </defs>
  <path class="cls-2" d="m171.41,53.8c-4.87-20.11-14.23-36.36-25.1-52.7-1.51-2.26-5.07-.73-4.43,1.91,0,.04.02.1.04.14,6.05,24.74,5.65,52.2,1.08,77.05-2.51,13.65-6.73,27.41-13.25,39.84-7.08,13.52-17.21,25.34-27.06,36.88-4.93,5.8-9.92,11.53-14.97,17.23-5.4,6.13-10.85,12.24-16.28,18.35-4.43,4.99-9.4,10.46-14.64,16.59-14.31,16.79-30.56,38.58-43.01,69.53-.58,1.41-1.14,2.82-1.9,4.84-13.67,36.38-16.5,77.54-3.46,114.15,6.48,18.2,17.06,34.95,30.73,48.58,11.35,11.33,26.36,22.65,41.58,28.16,1.33.48,2.98,1.12,4.14.31,2.57-1.78.56-4.18-.58-5.61-5.26-6.69-11.39-12.51-16.54-19.32-6.58-8.7-12.55-17.91-17-27.89-7.45-16.59-11.66-34.62-11.93-52.82-.06-4.27.08-8.55.44-12.8,3.35-40.23,24.27-76.88,48.45-109.24.17-.21.33-.43.48-.64,9.5-12.65,20.04-24.87,30.44-37.25,20.68-24.64,40.73-49.96,50.56-80.75,7.64-24,8.14-50.09,2.2-74.56Z"/>
  <circle class="cls-4" cx="88.48" cy="57.61" r="32.45"/>
  <circle class="cls-4" cx="88.48" cy="90.07" r="32.45"/>
  <circle class="cls-3" cx="89.25" cy="74.43" r="32.45"/>
  <g>
    <path class="cls-1" d="m163.55,283.47c-.75-2.01-1.32-3.42-1.88-4.84-12.47-30.95-28.72-52.74-43.03-69.53-10.41,12.38-20.95,24.6-30.44,37.25-.15.21-.31.43-.48.64,24.18,32.36,45.1,69.01,48.47,109.24.35,4.25.5,8.53.43,12.8-.27,18.2-4.49,36.23-11.91,52.82-4.47,9.98-10.44,19.19-17.02,27.89-5.14,6.81-11.26,12.63-16.54,19.32-1.12,1.43-3.13,3.83-.56,5.61,1.16.81,2.79.17,4.12-.31,15.22-5.51,30.23-16.83,41.6-28.16,13.65-13.64,24.23-30.38,30.71-48.58,13.04-36.61,10.21-77.77-3.46-114.15Z"/>
    <path class="cls-1" d="m87.72,246.93c.17-.21.33-.43.48-.64,9.5-12.65,20.04-24.87,30.44-37.25-5.24-6.13-10.21-11.6-14.64-16.59-5.43-6.11-10.89-12.22-16.28-18.35-.01.01-.02.02-.03.03-5.04-5.7-10.02-11.41-14.94-17.2-9.83-11.55-19.96-23.36-27.06-36.88-6.52-12.44-10.71-26.19-13.23-39.84-4.56-24.85-4.97-52.32,1.08-77.05.02-.04.02-.1.04-.14.64-2.65-2.94-4.18-4.43-1.91C18.27,17.44,8.91,33.69,4.05,53.8c-5.94,24.47-5.43,50.56,2.2,74.56,9.81,30.79,29.86,56.11,50.54,80.75,0-.01.02-.02.03-.03,10.4,12.37,20.93,24.58,30.42,37.22.15.21.31.43.48.64Z"/>
  </g>
</svg>